<svg xmlns="http://www.w3.org/2000/svg" xmlns:xlink="http://www.w3.org/1999/xlink" width="2000" zoomAndPan="magnify" viewBox="0 0 1500 374.999991" height="500" preserveAspectRatio="xMidYMid meet" version="1.0"><defs><g/></defs><g fill="#004aad" fill-opacity="0.749"><g transform="translate(117.535836, 248.812176)"><g><path d="M 91.984375 -20.71875 C 92.628906 -20.71875 93.441406 -20.4375 94.421875 -19.875 C 95.410156 -19.320312 95.90625 -17.96875 95.90625 -15.8125 L 95.90625 -4.765625 C 95.90625 -2.617188 95.410156 -1.265625 94.421875 -0.703125 C 93.441406 -0.140625 92.628906 0.140625 91.984375 0.140625 L 45.78125 0.140625 C 39.625 0.140625 34.394531 -0.648438 30.09375 -2.234375 C 25.707031 -3.734375 22.070312 -6.347656 19.1875 -10.078125 C 16.476562 -13.441406 14.46875 -18.015625 13.15625 -23.796875 C 11.851562 -29.492188 11.203125 -36.164062 11.203125 -43.8125 L 11.203125 -110.453125 C 11.203125 -112.691406 11.710938 -114.066406 12.734375 -114.578125 C 13.765625 -115.097656 14.609375 -115.359375 15.265625 -115.359375 L 28.140625 -115.359375 C 28.703125 -115.359375 29.492188 -115.097656 30.515625 -114.578125 C 31.546875 -114.066406 32.0625 -112.691406 32.0625 -110.453125 L 32.0625 -41.4375 C 32.0625 -39.382812 32.109375 -37.472656 32.203125 -35.703125 C 32.296875 -33.929688 32.484375 -32.34375 32.765625 -30.9375 C 33.128906 -28.414062 33.921875 -26.363281 35.140625 -24.78125 C 36.078125 -23.289062 37.429688 -22.265625 39.203125 -21.703125 C 41.066406 -21.046875 43.492188 -20.71875 46.484375 -20.71875 Z M 91.984375 -20.71875 "/></g></g></g><g fill="#004aad" fill-opacity="0.749"><g transform="translate(231.629452, 248.812176)"><g><path d="M 28 -115.359375 C 28.5625 -115.359375 29.351562 -115.078125 30.375 -114.515625 C 31.40625 -113.960938 31.921875 -112.609375 31.921875 -110.453125 L 31.921875 -4.765625 C 31.921875 -2.617188 31.40625 -1.265625 30.375 -0.703125 C 29.351562 -0.140625 28.5625 0.140625 28 0.140625 L 15.125 0.140625 C 14.5625 0.140625 13.765625 -0.140625 12.734375 -0.703125 C 11.710938 -1.265625 11.203125 -2.617188 11.203125 -4.765625 L 11.203125 -110.453125 C 11.203125 -112.609375 11.710938 -113.960938 12.734375 -114.515625 C 13.765625 -115.078125 14.5625 -115.359375 15.125 -115.359375 Z M 28 -115.359375 "/></g></g></g><g fill="#004aad" fill-opacity="0.749"><g transform="translate(281.746652, 248.812176)"><g><path d="M 110.3125 -115.359375 C 110.875 -115.359375 111.664062 -115.097656 112.6875 -114.578125 C 113.71875 -114.066406 114.234375 -112.691406 114.234375 -110.453125 L 114.234375 -17.921875 C 114.234375 -11.109375 113.253906 -6.441406 111.296875 -3.921875 C 109.335938 -1.210938 106.304688 0.140625 102.203125 0.140625 L 91.984375 0.140625 C 90.117188 0.140625 88.53125 0 87.21875 -0.28125 C 86.5625 -0.46875 85.90625 -0.675781 85.25 -0.90625 C 84.601562 -1.144531 84 -1.445312 83.4375 -1.8125 C 82.320312 -2.46875 81.296875 -3.5 80.359375 -4.90625 C 79.890625 -5.550781 79.375 -6.296875 78.8125 -7.140625 C 78.257812 -7.984375 77.703125 -8.960938 77.140625 -10.078125 L 32.765625 -88.765625 C 32.671875 -88.953125 32.578125 -89.066406 32.484375 -89.109375 C 32.390625 -89.160156 32.34375 -89.1875 32.34375 -89.1875 L 31.640625 -89.1875 C 31.640625 -89.1875 31.640625 -89.160156 31.640625 -89.109375 C 31.640625 -89.066406 31.640625 -89 31.640625 -88.90625 L 31.640625 -4.765625 C 31.640625 -2.617188 31.148438 -1.265625 30.171875 -0.703125 C 29.191406 -0.140625 28.375 0.140625 27.71875 0.140625 L 15.265625 0.140625 C 14.609375 0.140625 13.765625 -0.140625 12.734375 -0.703125 C 11.710938 -1.265625 11.203125 -2.617188 11.203125 -4.765625 L 11.203125 -97.296875 C 11.203125 -104.109375 12.179688 -108.820312 14.140625 -111.4375 C 16.191406 -114.050781 19.222656 -115.359375 23.234375 -115.359375 L 33.734375 -115.359375 C 34.671875 -115.359375 35.554688 -115.332031 36.390625 -115.28125 C 37.234375 -115.238281 37.984375 -115.171875 38.640625 -115.078125 C 40.128906 -114.796875 41.4375 -114.238281 42.5625 -113.40625 C 43.488281 -112.75 44.46875 -111.675781 45.5 -110.1875 C 45.96875 -109.53125 46.457031 -108.78125 46.96875 -107.9375 C 47.476562 -107.101562 48.015625 -106.171875 48.578125 -105.140625 L 92.8125 -26.453125 C 92.90625 -26.179688 93.046875 -26.046875 93.234375 -26.046875 L 93.9375 -26.046875 C 93.9375 -26.140625 93.9375 -26.1875 93.9375 -26.1875 C 93.9375 -26.1875 93.9375 -26.226562 93.9375 -26.3125 L 93.9375 -110.453125 C 93.9375 -112.691406 94.425781 -114.066406 95.40625 -114.578125 C 96.382812 -115.097656 97.203125 -115.359375 97.859375 -115.359375 Z M 110.3125 -115.359375 "/></g></g></g><g fill="#004aad" fill-opacity="0.749"><g transform="translate(414.179243, 248.812176)"><g><path d="M 78.265625 -48.015625 L 102.484375 -6.015625 C 103.035156 -5.367188 103.222656 -4.296875 103.046875 -2.796875 C 102.859375 -0.835938 101.78125 0.140625 99.8125 0.140625 L 84.703125 0.140625 C 83.296875 0.140625 82.316406 -0.140625 81.765625 -0.703125 C 81.203125 -1.171875 80.6875 -1.820312 80.21875 -2.65625 L 58.375 -41.015625 C 56.882812 -43.816406 55.347656 -45.640625 53.765625 -46.484375 C 52.171875 -47.410156 49.648438 -47.875 46.203125 -47.875 L 32.0625 -47.875 L 32.0625 -4.765625 C 32.0625 -2.617188 31.546875 -1.265625 30.515625 -0.703125 C 29.492188 -0.140625 28.703125 0.140625 28.140625 0.140625 L 15.265625 0.140625 C 14.703125 0.140625 13.882812 -0.140625 12.8125 -0.703125 C 11.738281 -1.265625 11.203125 -2.617188 11.203125 -4.765625 L 11.203125 -110.453125 C 11.203125 -112.691406 11.738281 -114.066406 12.8125 -114.578125 C 13.882812 -115.097656 14.703125 -115.359375 15.265625 -115.359375 L 28.140625 -115.359375 C 28.703125 -115.359375 29.492188 -115.097656 30.515625 -114.578125 C 31.546875 -114.066406 32.0625 -112.691406 32.0625 -110.453125 L 32.0625 -68.59375 L 44.9375 -68.59375 C 45.875 -68.59375 46.710938 -68.613281 47.453125 -68.65625 C 48.203125 -68.707031 48.859375 -68.78125 49.421875 -68.875 C 50.535156 -69.0625 51.515625 -69.34375 52.359375 -69.71875 C 53.203125 -70.1875 53.945312 -70.84375 54.59375 -71.6875 C 54.96875 -72.144531 55.363281 -72.675781 55.78125 -73.28125 C 56.207031 -73.894531 56.609375 -74.53125 56.984375 -75.1875 L 78.125 -112.5625 C 78.5 -113.3125 79.007812 -113.960938 79.65625 -114.515625 C 80.21875 -115.078125 81.242188 -115.359375 82.734375 -115.359375 L 96.59375 -115.359375 C 98.28125 -115.359375 99.351562 -114.566406 99.8125 -112.984375 C 100 -111.765625 99.863281 -110.644531 99.40625 -109.625 L 76.296875 -69.015625 C 74.898438 -66.679688 73.640625 -64.582031 72.515625 -62.71875 C 72.046875 -62.0625 71.601562 -61.429688 71.1875 -60.828125 C 70.769531 -60.222656 70.328125 -59.640625 69.859375 -59.078125 C 71.253906 -57.773438 72.648438 -56.1875 74.046875 -54.3125 C 75.453125 -52.445312 76.859375 -50.347656 78.265625 -48.015625 Z M 78.265625 -48.015625 "/></g></g></g><g fill="#004aad" fill-opacity="0.749"><g transform="translate(535.552457, 248.812176)"><g><path d="M 78.8125 -68.875 C 86.09375 -68.875 91.648438 -66.3125 95.484375 -61.1875 C 99.117188 -56.144531 100.9375 -49.050781 100.9375 -39.90625 L 100.9375 -27.578125 C 100.9375 -19.554688 99.164062 -12.976562 95.625 -7.84375 C 91.976562 -2.613281 86.285156 0 78.546875 0 L 15.40625 0 C 14.75 0 13.90625 -0.253906 12.875 -0.765625 C 11.851562 -1.285156 11.34375 -2.617188 11.34375 -4.765625 L 11.34375 -15.953125 C 11.34375 -18.109375 11.851562 -19.441406 12.875 -19.953125 C 13.90625 -20.460938 14.75 -20.71875 15.40625 -20.71875 L 75.1875 -20.71875 C 76.394531 -20.71875 77.253906 -20.925781 77.765625 -21.34375 C 78.285156 -21.769531 78.679688 -22.171875 78.953125 -22.546875 C 79.796875 -23.941406 80.21875 -25.898438 80.21875 -28.421875 L 80.21875 -40.453125 C 80.21875 -43.910156 79.65625 -46.054688 78.53125 -46.890625 C 77.414062 -47.734375 76.34375 -48.15625 75.3125 -48.15625 L 33.3125 -48.15625 C 30.425781 -48.15625 27.460938 -48.53125 24.421875 -49.28125 C 21.390625 -50.03125 18.800781 -51.847656 16.65625 -54.734375 C 13.019531 -59.867188 11.203125 -67.335938 11.203125 -77.140625 L 11.203125 -87.78125 C 11.203125 -95.988281 13.019531 -102.613281 16.65625 -107.65625 C 20.300781 -112.789062 25.945312 -115.359375 33.59375 -115.359375 L 93.9375 -115.359375 C 94.5 -115.359375 95.289062 -115.097656 96.3125 -114.578125 C 97.34375 -114.066406 97.859375 -112.738281 97.859375 -110.59375 L 97.859375 -99.40625 C 97.859375 -97.257812 97.34375 -95.925781 96.3125 -95.40625 C 95.289062 -94.894531 94.5 -94.640625 93.9375 -94.640625 L 36.953125 -94.640625 C 35.742188 -94.640625 34.878906 -94.453125 34.359375 -94.078125 C 33.847656 -93.703125 33.457031 -93.28125 33.1875 -92.8125 C 32.4375 -91.320312 32.0625 -89.363281 32.0625 -86.9375 L 32.0625 -76.578125 C 32.0625 -73.128906 32.597656 -70.984375 33.671875 -70.140625 C 34.742188 -69.296875 35.789062 -68.875 36.8125 -68.875 Z M 78.8125 -68.875 "/></g></g></g><g fill="#004aad" fill-opacity="0.749"><g transform="translate(654.685765, 248.812176)"><g><path d="M 107.9375 -115.359375 C 108.59375 -115.359375 109.429688 -115.097656 110.453125 -114.578125 C 111.484375 -114.066406 112 -112.738281 112 -110.59375 L 112 -99.6875 C 112 -97.351562 111.484375 -95.925781 110.453125 -95.40625 C 109.429688 -94.894531 108.59375 -94.640625 107.9375 -94.640625 L 71.953125 -94.640625 L 71.953125 -4.765625 C 71.953125 -2.617188 71.460938 -1.285156 70.484375 -0.765625 C 69.503906 -0.253906 68.691406 0 68.046875 0 L 55.15625 0 C 54.59375 0 53.796875 -0.253906 52.765625 -0.765625 C 51.742188 -1.285156 51.234375 -2.617188 51.234375 -4.765625 L 51.234375 -94.640625 L 15.265625 -94.640625 C 14.609375 -94.640625 13.765625 -94.894531 12.734375 -95.40625 C 11.710938 -95.925781 11.203125 -97.351562 11.203125 -99.6875 L 11.203125 -110.59375 C 11.203125 -112.738281 11.710938 -114.066406 12.734375 -114.578125 C 13.765625 -115.097656 14.609375 -115.359375 15.265625 -115.359375 Z M 107.9375 -115.359375 "/></g></g></g><g fill="#004aad" fill-opacity="0.749"><g transform="translate(765.279218, 248.812176)"><g><path d="M 86.234375 -102.34375 L 125.578125 -5.3125 C 126.140625 -4.007812 126.28125 -2.890625 126 -1.953125 C 125.90625 -1.585938 125.644531 -1.144531 125.21875 -0.625 C 124.800781 -0.113281 124.035156 0.140625 122.921875 0.140625 L 107.9375 0.140625 C 105.976562 0.140625 104.625 -0.882812 103.875 -2.9375 L 69.15625 -89.59375 C 69.0625 -89.78125 69.015625 -89.875 69.015625 -89.875 L 68.453125 -89.875 C 68.453125 -89.875 68.425781 -89.847656 68.375 -89.796875 C 68.332031 -89.753906 68.269531 -89.640625 68.1875 -89.453125 L 50.265625 -44.09375 L 67.625 -44.09375 C 69.582031 -44.09375 70.9375 -43.160156 71.6875 -41.296875 L 76.71875 -28.84375 C 77.1875 -27.25 77 -25.894531 76.15625 -24.78125 C 75.414062 -23.46875 74.203125 -22.8125 72.515625 -22.8125 L 41.859375 -22.8125 L 33.875 -2.796875 C 33.132812 -0.835938 31.828125 0.140625 29.953125 0.140625 L 14.5625 0.140625 C 13.4375 0.140625 12.664062 -0.113281 12.25 -0.625 C 11.832031 -1.144531 11.578125 -1.585938 11.484375 -1.953125 C 11.203125 -2.796875 11.296875 -3.914062 11.765625 -5.3125 L 50.8125 -102.34375 C 52.6875 -107.289062 54.742188 -110.695312 56.984375 -112.5625 C 57.265625 -112.75 57.585938 -112.984375 57.953125 -113.265625 C 58.328125 -113.546875 58.703125 -113.773438 59.078125 -113.953125 C 61.878906 -115.921875 65.097656 -116.90625 68.734375 -116.90625 C 72.566406 -116.90625 76.019531 -115.738281 79.09375 -113.40625 C 82.175781 -111.070312 84.28125 -108.082031 85.40625 -104.4375 C 85.59375 -104.15625 85.753906 -103.828125 85.890625 -103.453125 C 86.023438 -103.085938 86.140625 -102.71875 86.234375 -102.34375 Z M 86.234375 -102.34375 "/></g></g></g><g fill="#004aad" fill-opacity="0.749"><g transform="translate(909.751116, 248.812176)"><g><path d="M 106.6875 -81.90625 L 106.6875 -81.0625 C 106.6875 -81.15625 106.6875 -81.222656 106.6875 -81.265625 C 106.6875 -81.316406 106.6875 -81.390625 106.6875 -81.484375 C 106.6875 -81.578125 106.6875 -81.644531 106.6875 -81.6875 C 106.6875 -81.738281 106.6875 -81.8125 106.6875 -81.90625 Z M 109.34375 -6.015625 C 109.90625 -5.273438 110.09375 -4.15625 109.90625 -2.65625 C 109.625 -0.789062 108.550781 0.140625 106.6875 0.140625 L 91.28125 0.140625 C 90.0625 0.140625 89.082031 -0.140625 88.34375 -0.703125 C 88.0625 -0.890625 87.800781 -1.164062 87.5625 -1.53125 C 87.332031 -1.90625 87.078125 -2.28125 86.796875 -2.65625 L 61.453125 -47.59375 L 31.921875 -47.59375 L 31.921875 -4.765625 C 31.921875 -2.617188 31.429688 -1.265625 30.453125 -0.703125 C 29.472656 -0.140625 28.65625 0.140625 28 0.140625 L 15.265625 0.140625 C 14.609375 0.140625 13.765625 -0.140625 12.734375 -0.703125 C 11.710938 -1.265625 11.203125 -2.617188 11.203125 -4.765625 L 11.203125 -63.5625 C 11.203125 -65.707031 11.710938 -67.035156 12.734375 -67.546875 C 13.765625 -68.054688 14.609375 -68.3125 15.265625 -68.3125 L 76.15625 -68.3125 C 79.707031 -68.3125 82.179688 -69.34375 83.578125 -71.40625 C 85.066406 -73.457031 85.8125 -76.816406 85.8125 -81.484375 C 85.8125 -86.148438 85.066406 -89.507812 83.578125 -91.5625 C 82.179688 -93.613281 79.707031 -94.640625 76.15625 -94.640625 L 15.265625 -94.640625 C 14.609375 -94.640625 13.765625 -94.894531 12.734375 -95.40625 C 11.710938 -95.925781 11.203125 -97.257812 11.203125 -99.40625 L 11.203125 -110.453125 C 11.203125 -112.691406 11.710938 -114.066406 12.734375 -114.578125 C 13.765625 -115.097656 14.609375 -115.359375 15.265625 -115.359375 L 79.796875 -115.359375 C 89.410156 -115.359375 96.316406 -112.375 100.515625 -106.40625 C 104.535156 -100.613281 106.59375 -92.304688 106.6875 -81.484375 C 106.59375 -70.648438 104.535156 -62.34375 100.515625 -56.5625 C 96.972656 -51.707031 91.75 -48.859375 84.84375 -48.015625 Z M 109.34375 -6.015625 "/></g></g></g><g fill="#004aad" fill-opacity="0.749"><g transform="translate(1037.983985, 248.812176)"><g><path d="M 107.9375 -115.359375 C 108.59375 -115.359375 109.429688 -115.097656 110.453125 -114.578125 C 111.484375 -114.066406 112 -112.738281 112 -110.59375 L 112 -99.6875 C 112 -97.351562 111.484375 -95.925781 110.453125 -95.40625 C 109.429688 -94.894531 108.59375 -94.640625 107.9375 -94.640625 L 71.953125 -94.640625 L 71.953125 -4.765625 C 71.953125 -2.617188 71.460938 -1.285156 70.484375 -0.765625 C 69.503906 -0.253906 68.691406 0 68.046875 0 L 55.15625 0 C 54.59375 0 53.796875 -0.253906 52.765625 -0.765625 C 51.742188 -1.285156 51.234375 -2.617188 51.234375 -4.765625 L 51.234375 -94.640625 L 15.265625 -94.640625 C 14.609375 -94.640625 13.765625 -94.894531 12.734375 -95.40625 C 11.710938 -95.925781 11.203125 -97.351562 11.203125 -99.6875 L 11.203125 -110.59375 C 11.203125 -112.738281 11.710938 -114.066406 12.734375 -114.578125 C 13.765625 -115.097656 14.609375 -115.359375 15.265625 -115.359375 Z M 107.9375 -115.359375 "/></g></g></g><g fill="#004aad" fill-opacity="0.749"><g transform="translate(1168.176634, 248.812176)"><g><path d="M 25.765625 -20.15625 C 27.253906 -20.15625 28.535156 -19.640625 29.609375 -18.609375 C 30.679688 -17.585938 31.21875 -16.285156 31.21875 -14.703125 L 31.21875 -5.59375 C 31.21875 -4.101562 30.679688 -2.820312 29.609375 -1.75 C 28.535156 -0.675781 27.253906 -0.140625 25.765625 -0.140625 L 16.65625 -0.140625 C 15.164062 -0.140625 13.882812 -0.675781 12.8125 -1.75 C 11.738281 -2.820312 11.203125 -4.101562 11.203125 -5.59375 L 11.203125 -14.703125 C 11.203125 -16.285156 11.738281 -17.585938 12.8125 -18.609375 C 13.882812 -19.640625 15.164062 -20.15625 16.65625 -20.15625 Z M 25.765625 -20.15625 "/></g></g></g><g fill="#004aad" fill-opacity="0.749"><g transform="translate(1217.593867, 248.812176)"><g><path d="M 28 -115.359375 C 28.5625 -115.359375 29.351562 -115.078125 30.375 -114.515625 C 31.40625 -113.960938 31.921875 -112.609375 31.921875 -110.453125 L 31.921875 -4.765625 C 31.921875 -2.617188 31.40625 -1.265625 30.375 -0.703125 C 29.351562 -0.140625 28.5625 0.140625 28 0.140625 L 15.125 0.140625 C 14.5625 0.140625 13.765625 -0.140625 12.734375 -0.703125 C 11.710938 -1.265625 11.203125 -2.617188 11.203125 -4.765625 L 11.203125 -110.453125 C 11.203125 -112.609375 11.710938 -113.960938 12.734375 -114.515625 C 13.765625 -115.078125 14.5625 -115.359375 15.125 -115.359375 Z M 28 -115.359375 "/></g></g></g><g fill="#004aad" fill-opacity="0.749"><g transform="translate(1267.711112, 248.812176)"><g><path d="M 106.8125 -89.3125 C 108.21875 -83.4375 108.921875 -76.53125 108.921875 -68.59375 L 108.921875 -46.625 C 108.921875 -38.6875 108.21875 -31.78125 106.8125 -25.90625 C 106.164062 -23.007812 105.257812 -20.320312 104.09375 -17.84375 C 102.925781 -15.375 101.59375 -13.207031 100.09375 -11.34375 C 97.019531 -7.414062 93.054688 -4.519531 88.203125 -2.65625 C 83.441406 -0.789062 77.796875 0.140625 71.265625 0.140625 L 23.375 0.140625 C 21.226562 0.140625 19.195312 -0.394531 17.28125 -1.46875 C 15.375 -2.539062 13.859375 -4.007812 12.734375 -5.875 C 11.992188 -7.1875 11.484375 -8.632812 11.203125 -10.21875 L 11.34375 -105.84375 C 11.53125 -106.40625 11.738281 -106.988281 11.96875 -107.59375 C 12.195312 -108.195312 12.453125 -108.78125 12.734375 -109.34375 C 14.972656 -112.976562 18.195312 -114.9375 22.40625 -115.21875 L 22.40625 -115.359375 L 71.265625 -115.359375 C 77.703125 -115.359375 83.347656 -114.425781 88.203125 -112.5625 C 92.960938 -110.695312 96.925781 -107.847656 100.09375 -104.015625 C 101.59375 -102.054688 102.925781 -99.863281 104.09375 -97.4375 C 105.257812 -95.007812 106.164062 -92.300781 106.8125 -89.3125 Z M 31.78125 -21.421875 C 31.78125 -21.140625 31.800781 -20.953125 31.84375 -20.859375 C 31.894531 -20.765625 31.921875 -20.71875 31.921875 -20.71875 L 70.84375 -20.71875 C 72.425781 -20.71875 73.914062 -20.8125 75.3125 -21 C 76.71875 -21.1875 77.976562 -21.46875 79.09375 -21.84375 C 81.238281 -22.675781 82.96875 -23.9375 84.28125 -25.625 C 85.675781 -27.488281 86.65625 -29.914062 87.21875 -32.90625 C 87.5 -34.488281 87.734375 -36.234375 87.921875 -38.140625 C 88.109375 -40.054688 88.203125 -42.179688 88.203125 -44.515625 L 88.203125 -70.703125 C 88.203125 -73.035156 88.109375 -75.179688 87.921875 -77.140625 C 87.734375 -79.097656 87.5 -80.867188 87.21875 -82.453125 C 86.65625 -85.441406 85.675781 -87.820312 84.28125 -89.59375 C 83.15625 -91.28125 81.425781 -92.539062 79.09375 -93.375 C 76.851562 -94.21875 74.101562 -94.640625 70.84375 -94.640625 L 32.0625 -94.640625 C 31.875 -94.640625 31.78125 -94.359375 31.78125 -93.796875 Z M 31.78125 -21.421875 "/></g></g></g><g fill="#38b6ff" fill-opacity="1"><g transform="translate(111.348643, 242.624984)"><g><path d="M 91.984375 -20.71875 C 92.628906 -20.71875 93.441406 -20.4375 94.421875 -19.875 C 95.410156 -19.320312 95.90625 -17.96875 95.90625 -15.8125 L 95.90625 -4.765625 C 95.90625 -2.617188 95.410156 -1.265625 94.421875 -0.703125 C 93.441406 -0.140625 92.628906 0.140625 91.984375 0.140625 L 45.78125 0.140625 C 39.625 0.140625 34.394531 -0.648438 30.09375 -2.234375 C 25.707031 -3.734375 22.070312 -6.347656 19.1875 -10.078125 C 16.476562 -13.441406 14.46875 -18.015625 13.15625 -23.796875 C 11.851562 -29.492188 11.203125 -36.164062 11.203125 -43.8125 L 11.203125 -110.453125 C 11.203125 -112.691406 11.710938 -114.066406 12.734375 -114.578125 C 13.765625 -115.097656 14.609375 -115.359375 15.265625 -115.359375 L 28.140625 -115.359375 C 28.703125 -115.359375 29.492188 -115.097656 30.515625 -114.578125 C 31.546875 -114.066406 32.0625 -112.691406 32.0625 -110.453125 L 32.0625 -41.4375 C 32.0625 -39.382812 32.109375 -37.472656 32.203125 -35.703125 C 32.296875 -33.929688 32.484375 -32.34375 32.765625 -30.9375 C 33.128906 -28.414062 33.921875 -26.363281 35.140625 -24.78125 C 36.078125 -23.289062 37.429688 -22.265625 39.203125 -21.703125 C 41.066406 -21.046875 43.492188 -20.71875 46.484375 -20.71875 Z M 91.984375 -20.71875 "/></g></g></g><g fill="#38b6ff" fill-opacity="1"><g transform="translate(225.44226, 242.624984)"><g><path d="M 28 -115.359375 C 28.5625 -115.359375 29.351562 -115.078125 30.375 -114.515625 C 31.40625 -113.960938 31.921875 -112.609375 31.921875 -110.453125 L 31.921875 -4.765625 C 31.921875 -2.617188 31.40625 -1.265625 30.375 -0.703125 C 29.351562 -0.140625 28.5625 0.140625 28 0.140625 L 15.125 0.140625 C 14.5625 0.140625 13.765625 -0.140625 12.734375 -0.703125 C 11.710938 -1.265625 11.203125 -2.617188 11.203125 -4.765625 L 11.203125 -110.453125 C 11.203125 -112.609375 11.710938 -113.960938 12.734375 -114.515625 C 13.765625 -115.078125 14.5625 -115.359375 15.125 -115.359375 Z M 28 -115.359375 "/></g></g></g><g fill="#38b6ff" fill-opacity="1"><g transform="translate(275.559459, 242.624984)"><g><path d="M 110.3125 -115.359375 C 110.875 -115.359375 111.664062 -115.097656 112.6875 -114.578125 C 113.71875 -114.066406 114.234375 -112.691406 114.234375 -110.453125 L 114.234375 -17.921875 C 114.234375 -11.109375 113.253906 -6.441406 111.296875 -3.921875 C 109.335938 -1.210938 106.304688 0.140625 102.203125 0.140625 L 91.984375 0.140625 C 90.117188 0.140625 88.53125 0 87.21875 -0.28125 C 86.5625 -0.46875 85.90625 -0.675781 85.25 -0.90625 C 84.601562 -1.144531 84 -1.445312 83.4375 -1.8125 C 82.320312 -2.46875 81.296875 -3.5 80.359375 -4.90625 C 79.890625 -5.550781 79.375 -6.296875 78.8125 -7.140625 C 78.257812 -7.984375 77.703125 -8.960938 77.140625 -10.078125 L 32.765625 -88.765625 C 32.671875 -88.953125 32.578125 -89.066406 32.484375 -89.109375 C 32.390625 -89.160156 32.34375 -89.1875 32.34375 -89.1875 L 31.640625 -89.1875 C 31.640625 -89.1875 31.640625 -89.160156 31.640625 -89.109375 C 31.640625 -89.066406 31.640625 -89 31.640625 -88.90625 L 31.640625 -4.765625 C 31.640625 -2.617188 31.148438 -1.265625 30.171875 -0.703125 C 29.191406 -0.140625 28.375 0.140625 27.71875 0.140625 L 15.265625 0.140625 C 14.609375 0.140625 13.765625 -0.140625 12.734375 -0.703125 C 11.710938 -1.265625 11.203125 -2.617188 11.203125 -4.765625 L 11.203125 -97.296875 C 11.203125 -104.109375 12.179688 -108.820312 14.140625 -111.4375 C 16.191406 -114.050781 19.222656 -115.359375 23.234375 -115.359375 L 33.734375 -115.359375 C 34.671875 -115.359375 35.554688 -115.332031 36.390625 -115.28125 C 37.234375 -115.238281 37.984375 -115.171875 38.640625 -115.078125 C 40.128906 -114.796875 41.4375 -114.238281 42.5625 -113.40625 C 43.488281 -112.75 44.46875 -111.675781 45.5 -110.1875 C 45.96875 -109.53125 46.457031 -108.78125 46.96875 -107.9375 C 47.476562 -107.101562 48.015625 -106.171875 48.578125 -105.140625 L 92.8125 -26.453125 C 92.90625 -26.179688 93.046875 -26.046875 93.234375 -26.046875 L 93.9375 -26.046875 C 93.9375 -26.140625 93.9375 -26.1875 93.9375 -26.1875 C 93.9375 -26.1875 93.9375 -26.226562 93.9375 -26.3125 L 93.9375 -110.453125 C 93.9375 -112.691406 94.425781 -114.066406 95.40625 -114.578125 C 96.382812 -115.097656 97.203125 -115.359375 97.859375 -115.359375 Z M 110.3125 -115.359375 "/></g></g></g><g fill="#38b6ff" fill-opacity="1"><g transform="translate(407.992051, 242.624984)"><g><path d="M 78.265625 -48.015625 L 102.484375 -6.015625 C 103.035156 -5.367188 103.222656 -4.296875 103.046875 -2.796875 C 102.859375 -0.835938 101.78125 0.140625 99.8125 0.140625 L 84.703125 0.140625 C 83.296875 0.140625 82.316406 -0.140625 81.765625 -0.703125 C 81.203125 -1.171875 80.6875 -1.820312 80.21875 -2.65625 L 58.375 -41.015625 C 56.882812 -43.816406 55.347656 -45.640625 53.765625 -46.484375 C 52.171875 -47.410156 49.648438 -47.875 46.203125 -47.875 L 32.0625 -47.875 L 32.0625 -4.765625 C 32.0625 -2.617188 31.546875 -1.265625 30.515625 -0.703125 C 29.492188 -0.140625 28.703125 0.140625 28.140625 0.140625 L 15.265625 0.140625 C 14.703125 0.140625 13.882812 -0.140625 12.8125 -0.703125 C 11.738281 -1.265625 11.203125 -2.617188 11.203125 -4.765625 L 11.203125 -110.453125 C 11.203125 -112.691406 11.738281 -114.066406 12.8125 -114.578125 C 13.882812 -115.097656 14.703125 -115.359375 15.265625 -115.359375 L 28.140625 -115.359375 C 28.703125 -115.359375 29.492188 -115.097656 30.515625 -114.578125 C 31.546875 -114.066406 32.0625 -112.691406 32.0625 -110.453125 L 32.0625 -68.59375 L 44.9375 -68.59375 C 45.875 -68.59375 46.710938 -68.613281 47.453125 -68.65625 C 48.203125 -68.707031 48.859375 -68.78125 49.421875 -68.875 C 50.535156 -69.0625 51.515625 -69.34375 52.359375 -69.71875 C 53.203125 -70.1875 53.945312 -70.84375 54.59375 -71.6875 C 54.96875 -72.144531 55.363281 -72.675781 55.78125 -73.28125 C 56.207031 -73.894531 56.609375 -74.53125 56.984375 -75.1875 L 78.125 -112.5625 C 78.5 -113.3125 79.007812 -113.960938 79.65625 -114.515625 C 80.21875 -115.078125 81.242188 -115.359375 82.734375 -115.359375 L 96.59375 -115.359375 C 98.28125 -115.359375 99.351562 -114.566406 99.8125 -112.984375 C 100 -111.765625 99.863281 -110.644531 99.40625 -109.625 L 76.296875 -69.015625 C 74.898438 -66.679688 73.640625 -64.582031 72.515625 -62.71875 C 72.046875 -62.0625 71.601562 -61.429688 71.1875 -60.828125 C 70.769531 -60.222656 70.328125 -59.640625 69.859375 -59.078125 C 71.253906 -57.773438 72.648438 -56.1875 74.046875 -54.3125 C 75.453125 -52.445312 76.859375 -50.347656 78.265625 -48.015625 Z M 78.265625 -48.015625 "/></g></g></g><g fill="#38b6ff" fill-opacity="1"><g transform="translate(529.365265, 242.624984)"><g><path d="M 78.8125 -68.875 C 86.09375 -68.875 91.648438 -66.3125 95.484375 -61.1875 C 99.117188 -56.144531 100.9375 -49.050781 100.9375 -39.90625 L 100.9375 -27.578125 C 100.9375 -19.554688 99.164062 -12.976562 95.625 -7.84375 C 91.976562 -2.613281 86.285156 0 78.546875 0 L 15.40625 0 C 14.75 0 13.90625 -0.253906 12.875 -0.765625 C 11.851562 -1.285156 11.34375 -2.617188 11.34375 -4.765625 L 11.34375 -15.953125 C 11.34375 -18.109375 11.851562 -19.441406 12.875 -19.953125 C 13.90625 -20.460938 14.75 -20.71875 15.40625 -20.71875 L 75.1875 -20.71875 C 76.394531 -20.71875 77.253906 -20.925781 77.765625 -21.34375 C 78.285156 -21.769531 78.679688 -22.171875 78.953125 -22.546875 C 79.796875 -23.941406 80.21875 -25.898438 80.21875 -28.421875 L 80.21875 -40.453125 C 80.21875 -43.910156 79.65625 -46.054688 78.53125 -46.890625 C 77.414062 -47.734375 76.34375 -48.15625 75.3125 -48.15625 L 33.3125 -48.15625 C 30.425781 -48.15625 27.460938 -48.53125 24.421875 -49.28125 C 21.390625 -50.03125 18.800781 -51.847656 16.65625 -54.734375 C 13.019531 -59.867188 11.203125 -67.335938 11.203125 -77.140625 L 11.203125 -87.78125 C 11.203125 -95.988281 13.019531 -102.613281 16.65625 -107.65625 C 20.300781 -112.789062 25.945312 -115.359375 33.59375 -115.359375 L 93.9375 -115.359375 C 94.5 -115.359375 95.289062 -115.097656 96.3125 -114.578125 C 97.34375 -114.066406 97.859375 -112.738281 97.859375 -110.59375 L 97.859375 -99.40625 C 97.859375 -97.257812 97.34375 -95.925781 96.3125 -95.40625 C 95.289062 -94.894531 94.5 -94.640625 93.9375 -94.640625 L 36.953125 -94.640625 C 35.742188 -94.640625 34.878906 -94.453125 34.359375 -94.078125 C 33.847656 -93.703125 33.457031 -93.28125 33.1875 -92.8125 C 32.4375 -91.320312 32.0625 -89.363281 32.0625 -86.9375 L 32.0625 -76.578125 C 32.0625 -73.128906 32.597656 -70.984375 33.671875 -70.140625 C 34.742188 -69.296875 35.789062 -68.875 36.8125 -68.875 Z M 78.8125 -68.875 "/></g></g></g><g fill="#38b6ff" fill-opacity="1"><g transform="translate(648.498573, 242.624984)"><g><path d="M 107.9375 -115.359375 C 108.59375 -115.359375 109.429688 -115.097656 110.453125 -114.578125 C 111.484375 -114.066406 112 -112.738281 112 -110.59375 L 112 -99.6875 C 112 -97.351562 111.484375 -95.925781 110.453125 -95.40625 C 109.429688 -94.894531 108.59375 -94.640625 107.9375 -94.640625 L 71.953125 -94.640625 L 71.953125 -4.765625 C 71.953125 -2.617188 71.460938 -1.285156 70.484375 -0.765625 C 69.503906 -0.253906 68.691406 0 68.046875 0 L 55.15625 0 C 54.59375 0 53.796875 -0.253906 52.765625 -0.765625 C 51.742188 -1.285156 51.234375 -2.617188 51.234375 -4.765625 L 51.234375 -94.640625 L 15.265625 -94.640625 C 14.609375 -94.640625 13.765625 -94.894531 12.734375 -95.40625 C 11.710938 -95.925781 11.203125 -97.351562 11.203125 -99.6875 L 11.203125 -110.59375 C 11.203125 -112.738281 11.710938 -114.066406 12.734375 -114.578125 C 13.765625 -115.097656 14.609375 -115.359375 15.265625 -115.359375 Z M 107.9375 -115.359375 "/></g></g></g><g fill="#38b6ff" fill-opacity="1"><g transform="translate(759.092026, 242.624984)"><g><path d="M 86.234375 -102.34375 L 125.578125 -5.3125 C 126.140625 -4.007812 126.28125 -2.890625 126 -1.953125 C 125.90625 -1.585938 125.644531 -1.144531 125.21875 -0.625 C 124.800781 -0.113281 124.035156 0.140625 122.921875 0.140625 L 107.9375 0.140625 C 105.976562 0.140625 104.625 -0.882812 103.875 -2.9375 L 69.15625 -89.59375 C 69.0625 -89.78125 69.015625 -89.875 69.015625 -89.875 L 68.453125 -89.875 C 68.453125 -89.875 68.425781 -89.847656 68.375 -89.796875 C 68.332031 -89.753906 68.269531 -89.640625 68.1875 -89.453125 L 50.265625 -44.09375 L 67.625 -44.09375 C 69.582031 -44.09375 70.9375 -43.160156 71.6875 -41.296875 L 76.71875 -28.84375 C 77.1875 -27.25 77 -25.894531 76.15625 -24.78125 C 75.414062 -23.46875 74.203125 -22.8125 72.515625 -22.8125 L 41.859375 -22.8125 L 33.875 -2.796875 C 33.132812 -0.835938 31.828125 0.140625 29.953125 0.140625 L 14.5625 0.140625 C 13.4375 0.140625 12.664062 -0.113281 12.25 -0.625 C 11.832031 -1.144531 11.578125 -1.585938 11.484375 -1.953125 C 11.203125 -2.796875 11.296875 -3.914062 11.765625 -5.3125 L 50.8125 -102.34375 C 52.6875 -107.289062 54.742188 -110.695312 56.984375 -112.5625 C 57.265625 -112.75 57.585938 -112.984375 57.953125 -113.265625 C 58.328125 -113.546875 58.703125 -113.773438 59.078125 -113.953125 C 61.878906 -115.921875 65.097656 -116.90625 68.734375 -116.90625 C 72.566406 -116.90625 76.019531 -115.738281 79.09375 -113.40625 C 82.175781 -111.070312 84.28125 -108.082031 85.40625 -104.4375 C 85.59375 -104.15625 85.753906 -103.828125 85.890625 -103.453125 C 86.023438 -103.085938 86.140625 -102.71875 86.234375 -102.34375 Z M 86.234375 -102.34375 "/></g></g></g><g fill="#38b6ff" fill-opacity="1"><g transform="translate(903.563924, 242.624984)"><g><path d="M 106.6875 -81.90625 L 106.6875 -81.0625 C 106.6875 -81.15625 106.6875 -81.222656 106.6875 -81.265625 C 106.6875 -81.316406 106.6875 -81.390625 106.6875 -81.484375 C 106.6875 -81.578125 106.6875 -81.644531 106.6875 -81.6875 C 106.6875 -81.738281 106.6875 -81.8125 106.6875 -81.90625 Z M 109.34375 -6.015625 C 109.90625 -5.273438 110.09375 -4.15625 109.90625 -2.65625 C 109.625 -0.789062 108.550781 0.140625 106.6875 0.140625 L 91.28125 0.140625 C 90.0625 0.140625 89.082031 -0.140625 88.34375 -0.703125 C 88.0625 -0.890625 87.800781 -1.164062 87.5625 -1.53125 C 87.332031 -1.90625 87.078125 -2.28125 86.796875 -2.65625 L 61.453125 -47.59375 L 31.921875 -47.59375 L 31.921875 -4.765625 C 31.921875 -2.617188 31.429688 -1.265625 30.453125 -0.703125 C 29.472656 -0.140625 28.65625 0.140625 28 0.140625 L 15.265625 0.140625 C 14.609375 0.140625 13.765625 -0.140625 12.734375 -0.703125 C 11.710938 -1.265625 11.203125 -2.617188 11.203125 -4.765625 L 11.203125 -63.5625 C 11.203125 -65.707031 11.710938 -67.035156 12.734375 -67.546875 C 13.765625 -68.054688 14.609375 -68.3125 15.265625 -68.3125 L 76.15625 -68.3125 C 79.707031 -68.3125 82.179688 -69.34375 83.578125 -71.40625 C 85.066406 -73.457031 85.8125 -76.816406 85.8125 -81.484375 C 85.8125 -86.148438 85.066406 -89.507812 83.578125 -91.5625 C 82.179688 -93.613281 79.707031 -94.640625 76.15625 -94.640625 L 15.265625 -94.640625 C 14.609375 -94.640625 13.765625 -94.894531 12.734375 -95.40625 C 11.710938 -95.925781 11.203125 -97.257812 11.203125 -99.40625 L 11.203125 -110.453125 C 11.203125 -112.691406 11.710938 -114.066406 12.734375 -114.578125 C 13.765625 -115.097656 14.609375 -115.359375 15.265625 -115.359375 L 79.796875 -115.359375 C 89.410156 -115.359375 96.316406 -112.375 100.515625 -106.40625 C 104.535156 -100.613281 106.59375 -92.304688 106.6875 -81.484375 C 106.59375 -70.648438 104.535156 -62.34375 100.515625 -56.5625 C 96.972656 -51.707031 91.75 -48.859375 84.84375 -48.015625 Z M 109.34375 -6.015625 "/></g></g></g><g fill="#38b6ff" fill-opacity="1"><g transform="translate(1031.796793, 242.624984)"><g><path d="M 107.9375 -115.359375 C 108.59375 -115.359375 109.429688 -115.097656 110.453125 -114.578125 C 111.484375 -114.066406 112 -112.738281 112 -110.59375 L 112 -99.6875 C 112 -97.351562 111.484375 -95.925781 110.453125 -95.40625 C 109.429688 -94.894531 108.59375 -94.640625 107.9375 -94.640625 L 71.953125 -94.640625 L 71.953125 -4.765625 C 71.953125 -2.617188 71.460938 -1.285156 70.484375 -0.765625 C 69.503906 -0.253906 68.691406 0 68.046875 0 L 55.15625 0 C 54.59375 0 53.796875 -0.253906 52.765625 -0.765625 C 51.742188 -1.285156 51.234375 -2.617188 51.234375 -4.765625 L 51.234375 -94.640625 L 15.265625 -94.640625 C 14.609375 -94.640625 13.765625 -94.894531 12.734375 -95.40625 C 11.710938 -95.925781 11.203125 -97.351562 11.203125 -99.6875 L 11.203125 -110.59375 C 11.203125 -112.738281 11.710938 -114.066406 12.734375 -114.578125 C 13.765625 -115.097656 14.609375 -115.359375 15.265625 -115.359375 Z M 107.9375 -115.359375 "/></g></g></g><g fill="#38b6ff" fill-opacity="1"><g transform="translate(1161.989442, 242.624984)"><g><path d="M 25.765625 -20.15625 C 27.253906 -20.15625 28.535156 -19.640625 29.609375 -18.609375 C 30.679688 -17.585938 31.21875 -16.285156 31.21875 -14.703125 L 31.21875 -5.59375 C 31.21875 -4.101562 30.679688 -2.820312 29.609375 -1.75 C 28.535156 -0.675781 27.253906 -0.140625 25.765625 -0.140625 L 16.65625 -0.140625 C 15.164062 -0.140625 13.882812 -0.675781 12.8125 -1.75 C 11.738281 -2.820312 11.203125 -4.101562 11.203125 -5.59375 L 11.203125 -14.703125 C 11.203125 -16.285156 11.738281 -17.585938 12.8125 -18.609375 C 13.882812 -19.640625 15.164062 -20.15625 16.65625 -20.15625 Z M 25.765625 -20.15625 "/></g></g></g><g fill="#38b6ff" fill-opacity="1"><g transform="translate(1211.406675, 242.624984)"><g><path d="M 28 -115.359375 C 28.5625 -115.359375 29.351562 -115.078125 30.375 -114.515625 C 31.40625 -113.960938 31.921875 -112.609375 31.921875 -110.453125 L 31.921875 -4.765625 C 31.921875 -2.617188 31.40625 -1.265625 30.375 -0.703125 C 29.351562 -0.140625 28.5625 0.140625 28 0.140625 L 15.125 0.140625 C 14.5625 0.140625 13.765625 -0.140625 12.734375 -0.703125 C 11.710938 -1.265625 11.203125 -2.617188 11.203125 -4.765625 L 11.203125 -110.453125 C 11.203125 -112.609375 11.710938 -113.960938 12.734375 -114.515625 C 13.765625 -115.078125 14.5625 -115.359375 15.125 -115.359375 Z M 28 -115.359375 "/></g></g></g><g fill="#38b6ff" fill-opacity="1"><g transform="translate(1261.52392, 242.624984)"><g><path d="M 106.8125 -89.3125 C 108.21875 -83.4375 108.921875 -76.53125 108.921875 -68.59375 L 108.921875 -46.625 C 108.921875 -38.6875 108.21875 -31.78125 106.8125 -25.90625 C 106.164062 -23.007812 105.257812 -20.320312 104.09375 -17.84375 C 102.925781 -15.375 101.59375 -13.207031 100.09375 -11.34375 C 97.019531 -7.414062 93.054688 -4.519531 88.203125 -2.65625 C 83.441406 -0.789062 77.796875 0.140625 71.265625 0.140625 L 23.375 0.140625 C 21.226562 0.140625 19.195312 -0.394531 17.28125 -1.46875 C 15.375 -2.539062 13.859375 -4.007812 12.734375 -5.875 C 11.992188 -7.1875 11.484375 -8.632812 11.203125 -10.21875 L 11.34375 -105.84375 C 11.53125 -106.40625 11.738281 -106.988281 11.96875 -107.59375 C 12.195312 -108.195312 12.453125 -108.78125 12.734375 -109.34375 C 14.972656 -112.976562 18.195312 -114.9375 22.40625 -115.21875 L 22.40625 -115.359375 L 71.265625 -115.359375 C 77.703125 -115.359375 83.347656 -114.425781 88.203125 -112.5625 C 92.960938 -110.695312 96.925781 -107.847656 100.09375 -104.015625 C 101.59375 -102.054688 102.925781 -99.863281 104.09375 -97.4375 C 105.257812 -95.007812 106.164062 -92.300781 106.8125 -89.3125 Z M 31.78125 -21.421875 C 31.78125 -21.140625 31.800781 -20.953125 31.84375 -20.859375 C 31.894531 -20.765625 31.921875 -20.71875 31.921875 -20.71875 L 70.84375 -20.71875 C 72.425781 -20.71875 73.914062 -20.8125 75.3125 -21 C 76.71875 -21.1875 77.976562 -21.46875 79.09375 -21.84375 C 81.238281 -22.675781 82.96875 -23.9375 84.28125 -25.625 C 85.675781 -27.488281 86.65625 -29.914062 87.21875 -32.90625 C 87.5 -34.488281 87.734375 -36.234375 87.921875 -38.140625 C 88.109375 -40.054688 88.203125 -42.179688 88.203125 -44.515625 L 88.203125 -70.703125 C 88.203125 -73.035156 88.109375 -75.179688 87.921875 -77.140625 C 87.734375 -79.097656 87.5 -80.867188 87.21875 -82.453125 C 86.65625 -85.441406 85.675781 -87.820312 84.28125 -89.59375 C 83.15625 -91.28125 81.425781 -92.539062 79.09375 -93.375 C 76.851562 -94.21875 74.101562 -94.640625 70.84375 -94.640625 L 32.0625 -94.640625 C 31.875 -94.640625 31.78125 -94.359375 31.78125 -93.796875 Z M 31.78125 -21.421875 "/></g></g></g></svg>